No subs, so if anyone can find it in any language please give me the link by posting on the comments section, I will try make an English one.

Even with no subs, the only reason to see this movie is Ursula Andress naked, the hottest Bond Girl from Dr. No.

Its not my rip, just something I found on web and sharing it.


Enjoy !!!!!!!!!!




General
Complete name                    : G:\\Movie\\L\'infermiera (1975)\\L\'infermiera (1975).avi
Format                           : AVI
Format/Info                      : Audio Video Interleave
File size                        : 700 MiB
Duration                         : 1h 37mn
Overall bit rate                 : 1 002 Kbps

Video
ID                               : 0
Format                           : MPEG-4 Visual
Format settings, BVOP            : Yes
Format settings, QPel            : No
Format settings, GMC             : No warppoints
Format settings, Matrix          : Default (MPEG)
Codec ID                         : XVID
Codec ID/Hint                    : XviD
Duration                         : 1h 37mn
Bit rate                         : 926 Kbps
Width                            : 544 pixels
Height                           : 352 pixels
Display aspect ratio             : 3:2
Frame rate                       : 25.000 fps
Color space                      : YUV
Chroma subsampling               : 4:2:0
Bit depth                        : 8 bits
Scan type                        : Progressive
Compression mode                 : Lossy
Bits/(Pixel*Frame)               : 0.193
Stream size                      : 647 MiB (92%)

Audio
ID                               : 1
Format                           : MPEG Audio
Format version                   : Version 1
Format profile                   : Layer 3
Mode                             : Joint stereo
Mode extension                   : MS Stereo
Codec ID                         : 55
Codec ID/Hint                    : MP3
Duration                         : 1h 37mn
Bit rate mode                    : Constant
Bit rate                         : 64.0 Kbps
Channel(s)                       : 2 channels
Sampling rate                    : 44.1 KHz
Compression mode                 : Lossy
Stream size                      : 44.7 MiB (6%)
Alignment                        : Split accross interleaves
Interleave, duration             : 26 ms (0.65 video frame)
